# xmcd CD database file
# Copyright (C) 1993-1998 Ti Kan
# 
# Track frame offsets:
#     150
#     14635
#     29092
#     44775
#     59975
#     74270
#     87845
#     101525
#     116260
#     129410
#     142920
#     156595
#     171405
#     186895
# 
# Disc length: 2699 seconds
# 
# Revision: 1
# Processed by: cddbd v1.4b41PL1 Copyright (c) Steve Scherf et al.
# Submitted via: DiscPlay 4.0.4
# 
DISCID=d40a890e
DTITLE=Bessie Smith - Empress of the Blues
DYEAR=1900
DGENRE=
TTITLE0=St. Louis Blues
TTITLE1=Cake walkin' babies from home
TTITLE2=Careless love
TTITLE3=I ain't gonna play no second fiddle
TTITLE4=Young woman blues
TTITLE5=After you've gone
TTITLE6=Alexander's ragtime band
TTITLE7=Trombone cholly
TTITLE8=Me and my gin
TTITLE9=Kitchen man
TTITLE10=Nobody knows you when you're down and out
TTITLE11=He's got me goin'
TTITLE12=Do your duty
TTITLE13=Gimme a pigfoot
EXTD=
EXTT0=
EXTT1=
EXTT2=
EXTT3=
EXTT4=
EXTT5=
EXTT6=
EXTT7=
EXTT8=
EXTT9=
EXTT10=
EXTT11=
EXTT12=
EXTT13=
PLAYORDER=
